<svg xmlns="http://www.w3.org/2000/svg" xmlns:xlink="http://www.w3.org/1999/xlink" width="500" zoomAndPan="magnify" viewBox="0 0 375 112.499997" height="150" preserveAspectRatio="xMidYMid meet" version="1.0"><defs><g/></defs><g fill="#000000" fill-opacity="1"><g transform="translate(14.714918, 65.191402)"><g><path d="M 31.839844 0 C 30.914062 -4.636719 30.914062 -7.789062 30.914062 -11.996094 L 30.914062 -21.390625 C 30.851562 -28.007812 26.523438 -30.417969 20.28125 -30.417969 C 14.160156 -30.417969 8.46875 -27.761719 4.390625 -24.917969 C 4.882812 -21.886719 8.160156 -21.453125 10.078125 -23.804688 C 11.746094 -25.660156 13.601562 -29.429688 19.660156 -29.429688 C 23.554688 -29.429688 25.535156 -26.957031 25.535156 -22.503906 C 25.535156 -18.671875 22.011719 -17.683594 16.816406 -16.816406 C 10.386719 -15.765625 3.523438 -13.726562 3.523438 -6.863281 C 3.523438 -1.238281 8.46875 1.238281 13.601562 1.238281 C 20.339844 1.238281 24.050781 -2.535156 25.535156 -7.234375 C 25.597656 -4.945312 25.71875 -3.03125 26.03125 0 Z M 15.953125 -0.617188 C 12.179688 -0.617188 9.460938 -3.03125 9.460938 -7.605469 C 9.460938 -12.242188 12.242188 -14.902344 17.746094 -16.074219 C 21.453125 -16.878906 24.175781 -17.375 25.535156 -19.289062 L 25.535156 -12.738281 C 25.535156 -5.75 21.761719 -0.617188 15.953125 -0.617188 Z M 15.953125 -0.617188 "/></g></g></g><g fill="#000000" fill-opacity="1"><g transform="translate(55.026693, 65.191402)"><g><path d="M 23.125 -12.613281 C 21.761719 -3.152344 19.597656 0.0625 16.695312 0.0625 C 14.40625 0.0625 13.109375 -1.730469 13.109375 -7.914062 L 13.109375 -28.195312 L 22.011719 -28.195312 L 22.011719 -29.183594 L 7.914062 -29.183594 C 13.480469 -31.347656 14.34375 -36.789062 14.34375 -41.980469 L 9.707031 -41.980469 C 9.707031 -35.304688 10.015625 -29.183594 1.855469 -29.183594 L 1.050781 -29.183594 L 1.050781 -28.195312 L 7.730469 -28.195312 L 7.730469 -8.59375 C 7.730469 -1.175781 10.203125 1.546875 14.960938 1.546875 C 19.597656 1.546875 22.445312 -1.609375 23.988281 -12.613281 Z M 23.125 -12.613281 "/></g></g></g><g fill="#000000" fill-opacity="1"><g transform="translate(86.249931, 65.191402)"><g><path d="M 31.839844 0 C 30.914062 -4.636719 30.914062 -7.789062 30.914062 -11.996094 L 30.914062 -21.390625 C 30.851562 -28.007812 26.523438 -30.417969 20.28125 -30.417969 C 14.160156 -30.417969 8.46875 -27.761719 4.390625 -24.917969 C 4.882812 -21.886719 8.160156 -21.453125 10.078125 -23.804688 C 11.746094 -25.660156 13.601562 -29.429688 19.660156 -29.429688 C 23.554688 -29.429688 25.535156 -26.957031 25.535156 -22.503906 C 25.535156 -18.671875 22.011719 -17.683594 16.816406 -16.816406 C 10.386719 -15.765625 3.523438 -13.726562 3.523438 -6.863281 C 3.523438 -1.238281 8.46875 1.238281 13.601562 1.238281 C 20.339844 1.238281 24.050781 -2.535156 25.535156 -7.234375 C 25.597656 -4.945312 25.71875 -3.03125 26.03125 0 Z M 15.953125 -0.617188 C 12.179688 -0.617188 9.460938 -3.03125 9.460938 -7.605469 C 9.460938 -12.242188 12.242188 -14.902344 17.746094 -16.074219 C 21.453125 -16.878906 24.175781 -17.375 25.535156 -19.289062 L 25.535156 -12.738281 C 25.535156 -5.75 21.761719 -0.617188 15.953125 -0.617188 Z M 15.953125 -0.617188 "/></g></g></g><g fill="#000000" fill-opacity="1"><g transform="translate(126.561706, 65.191402)"><g><path d="M 25.289062 0 L 31.59375 0 C 31.097656 -5.933594 31.097656 -8.222656 31.097656 -11.996094 L 31.097656 -18.734375 C 31.097656 -26.957031 27.945312 -30.417969 21.886719 -30.417969 C 15.953125 -30.417969 11.933594 -26.339844 9.890625 -22.445312 C 9.953125 -24.484375 10.078125 -26.585938 10.324219 -29.183594 L 3.957031 -29.183594 C 4.453125 -24.546875 4.453125 -21.390625 4.453125 -17.558594 L 4.453125 -11.5625 C 4.453125 -7.789062 4.453125 -4.636719 3.957031 0 L 10.324219 0 C 9.832031 -4.636719 9.832031 -7.789062 9.832031 -11.5625 L 9.832031 -20.773438 C 11.808594 -24.667969 15.210938 -28.875 20.03125 -28.875 C 23.988281 -28.875 25.78125 -25.96875 25.78125 -20.339844 L 25.78125 -11.996094 C 25.78125 -8.222656 25.78125 -5.933594 25.289062 0 Z M 25.289062 0 "/></g></g></g><g fill="#000000" fill-opacity="1"><g transform="translate(167.120784, 65.191402)"><g><path d="M 31.839844 0 C 30.914062 -4.636719 30.914062 -7.789062 30.914062 -11.996094 L 30.914062 -21.390625 C 30.851562 -28.007812 26.523438 -30.417969 20.28125 -30.417969 C 14.160156 -30.417969 8.46875 -27.761719 4.390625 -24.917969 C 4.882812 -21.886719 8.160156 -21.453125 10.078125 -23.804688 C 11.746094 -25.660156 13.601562 -29.429688 19.660156 -29.429688 C 23.554688 -29.429688 25.535156 -26.957031 25.535156 -22.503906 C 25.535156 -18.671875 22.011719 -17.683594 16.816406 -16.816406 C 10.386719 -15.765625 3.523438 -13.726562 3.523438 -6.863281 C 3.523438 -1.238281 8.46875 1.238281 13.601562 1.238281 C 20.339844 1.238281 24.050781 -2.535156 25.535156 -7.234375 C 25.597656 -4.945312 25.71875 -3.03125 26.03125 0 Z M 15.953125 -0.617188 C 12.179688 -0.617188 9.460938 -3.03125 9.460938 -7.605469 C 9.460938 -12.242188 12.242188 -14.902344 17.746094 -16.074219 C 21.453125 -16.878906 24.175781 -17.375 25.535156 -19.289062 L 25.535156 -12.738281 C 25.535156 -5.75 21.761719 -0.617188 15.953125 -0.617188 Z M 15.953125 -0.617188 "/></g></g></g><g fill="#000000" fill-opacity="1"><g transform="translate(207.432559, 65.191402)"><g><path d="M 2.289062 -8.71875 C 3.773438 -2.226562 8.902344 1.238281 16.011719 1.238281 C 22.9375 1.238281 27.203125 -2.164062 27.203125 -7.109375 C 27.203125 -12.425781 23.0625 -14.46875 16.941406 -17.496094 C 11.316406 -20.28125 8.160156 -22.011719 8.160156 -25.226562 C 8.160156 -28.007812 10.449219 -29.367188 13.910156 -29.367188 C 18.425781 -29.367188 20.03125 -27.019531 20.835938 -23.925781 C 21.640625 -20.960938 24.667969 -20.835938 25.84375 -22.875 C 23.308594 -27.636719 19.476562 -30.417969 13.847656 -30.417969 C 9.027344 -30.417969 4.019531 -28.503906 4.019531 -23.742188 C 4.019531 -19.230469 8.039062 -17.125 13.789062 -14.160156 C 20.402344 -10.757812 22.875 -9.398438 22.875 -5.8125 C 22.875 -2.410156 20.835938 0.246094 16.199219 0.246094 C 10.386719 0.246094 7.667969 -3.523438 7.667969 -7.234375 C 7.296875 -10.695312 3.773438 -11.191406 2.289062 -8.71875 Z M 2.289062 -8.71875 "/></g></g></g><g fill="#000000" fill-opacity="1"><g transform="translate(241.870787, 65.191402)"><g><path d="M 20.15625 1.238281 C 30.234375 1.238281 37.40625 -5.070312 37.40625 -14.589844 C 37.40625 -24.050781 30.234375 -30.417969 20.15625 -30.417969 C 10.078125 -30.417969 2.90625 -24.050781 2.90625 -14.589844 C 2.90625 -5.070312 10.078125 1.238281 20.15625 1.238281 Z M 20.15625 0.246094 C 12.675781 0.246094 8.839844 -5.625 8.839844 -14.589844 C 8.839844 -23.554688 12.675781 -29.429688 20.15625 -29.429688 C 27.636719 -29.429688 31.46875 -23.554688 31.46875 -14.589844 C 31.46875 -5.625 27.636719 0.246094 20.15625 0.246094 Z M 20.15625 0.246094 "/></g></g></g><g fill="#000000" fill-opacity="1"><g transform="translate(287.128706, 65.191402)"><g><path d="M 26.648438 -26.523438 C 27.390625 -24.855469 29.863281 -23.246094 28.007812 -18.980469 L 20.589844 -1.855469 L 10.757812 -24.484375 C 10.015625 -26.214844 9.523438 -27.453125 9.210938 -29.183594 L 2.289062 -29.183594 C 3.402344 -27.390625 4.140625 -26.152344 4.882812 -24.359375 L 15.332031 0 L 21.703125 0 C 21.515625 -1.484375 21.949219 -2.535156 22.691406 -4.265625 L 29.492188 -19.847656 C 31.039062 -23.554688 30.605469 -26.894531 29.863281 -29.183594 C 27.699219 -29.429688 25.84375 -28.441406 26.648438 -26.523438 Z M 26.648438 -26.523438 "/></g></g></g><g fill="#000000" fill-opacity="1"><g transform="translate(324.905574, 65.191402)"><g><path d="M 31.839844 0 C 30.914062 -4.636719 30.914062 -7.789062 30.914062 -11.996094 L 30.914062 -21.390625 C 30.851562 -28.007812 26.523438 -30.417969 20.28125 -30.417969 C 14.160156 -30.417969 8.46875 -27.761719 4.390625 -24.917969 C 4.882812 -21.886719 8.160156 -21.453125 10.078125 -23.804688 C 11.746094 -25.660156 13.601562 -29.429688 19.660156 -29.429688 C 23.554688 -29.429688 25.535156 -26.957031 25.535156 -22.503906 C 25.535156 -18.671875 22.011719 -17.683594 16.816406 -16.816406 C 10.386719 -15.765625 3.523438 -13.726562 3.523438 -6.863281 C 3.523438 -1.238281 8.46875 1.238281 13.601562 1.238281 C 20.339844 1.238281 24.050781 -2.535156 25.535156 -7.234375 C 25.597656 -4.945312 25.71875 -3.03125 26.03125 0 Z M 15.953125 -0.617188 C 12.179688 -0.617188 9.460938 -3.03125 9.460938 -7.605469 C 9.460938 -12.242188 12.242188 -14.902344 17.746094 -16.074219 C 21.453125 -16.878906 24.175781 -17.375 25.535156 -19.289062 L 25.535156 -12.738281 C 25.535156 -5.75 21.761719 -0.617188 15.953125 -0.617188 Z M 15.953125 -0.617188 "/></g></g></g><path stroke-linecap="round" transform="matrix(1.990986, 0, 0, 1.996171, 102.389138, 85.39245)" fill="none" stroke-linejoin="miter" d="M 0.499087 0.500045 L 59.658304 0.500045 " stroke="#000000" stroke-width="1" stroke-opacity="1" stroke-miterlimit="4"/><g fill="#000000" fill-opacity="1"><g transform="translate(249.785125, 90.391205)"><g><path d="M 27.03125 -18.894531 C 26.613281 -19.472656 24.753906 -19.824219 4.867188 -19.375 C 5.507812 -21.96875 6.085938 -24.308594 6.597656 -26.195312 C 6.691406 -26.550781 6.5 -26.871094 6.179688 -26.964844 C 5.859375 -27.0625 5.507812 -26.871094 5.414062 -26.550781 C 4.867188 -24.53125 4.257812 -22.097656 3.585938 -19.34375 C 1.824219 -19.3125 -0.0976562 -19.277344 -2.175781 -19.214844 C -5.027344 -19.152344 -7.269531 -19.085938 -8.132812 -19.085938 C -8.488281 -19.085938 -8.773438 -18.796875 -8.773438 -18.480469 C -8.773438 -18.125 -8.488281 -17.839844 -8.132812 -17.839844 C -7.238281 -17.871094 -4.996094 -17.902344 -2.144531 -18 C -0.640625 -18.03125 1.21875 -18.0625 3.296875 -18.125 C 1.921875 -12.296875 0.351562 -5.316406 -1.058594 1.503906 C -2.082031 6.5 -2.914062 10.824219 -3.457031 13.996094 C -3.746094 15.660156 -3.9375 16.972656 -4.035156 17.871094 C -4.164062 19.085938 -4.226562 19.792969 -3.617188 20.015625 C -3.523438 20.015625 -3.457031 20.046875 -3.363281 20.046875 C -2.816406 20.046875 -2.53125 19.277344 -2.273438 18.574219 C -2.144531 18.253906 -2.304688 17.902344 -2.625 17.773438 C -2.691406 17.773438 -2.722656 17.742188 -2.785156 17.742188 C -2.464844 15.242188 -1.503906 9.640625 0.351562 0.800781 C 1.730469 -5.894531 3.234375 -12.585938 4.578125 -18.160156 C 13.386719 -18.351562 24.820312 -18.511719 26.132812 -18.0625 C 26.355469 -17.871094 26.644531 -17.871094 26.902344 -18.03125 C 27.15625 -18.222656 27.222656 -18.605469 27.03125 -18.894531 Z M 27.03125 -18.894531 "/></g></g></g><g fill="#000000" fill-opacity="1"><g transform="translate(254.043873, 90.391205)"><g><path d="M 9.351562 -7.269531 C 9.0625 -7.460938 8.710938 -7.367188 8.519531 -7.078125 C 6.371094 -3.617188 2.785156 -0.351562 1.699219 -0.800781 C 1.570312 -0.863281 0.542969 -1.472656 1.953125 -6.886719 C 2.019531 -7.238281 1.824219 -7.558594 1.503906 -7.652344 C 1.152344 -7.71875 0.832031 -7.527344 0.738281 -7.207031 C -0.417969 -2.691406 -0.257812 -0.289062 1.183594 0.320312 C 1.410156 0.417969 1.632812 0.449219 1.859375 0.449219 C 4.257812 0.449219 7.941406 -3.84375 9.574219 -6.4375 C 9.734375 -6.726562 9.640625 -7.109375 9.351562 -7.269531 Z M 1.792969 -9.863281 C 3.425781 -9.769531 3.394531 -11.816406 2.082031 -11.367188 C 1.410156 -11.175781 0.542969 -9.929688 1.792969 -9.863281 Z M 1.792969 -9.863281 "/></g></g></g><g fill="#000000" fill-opacity="1"><g transform="translate(262.145087, 90.391205)"><g><path d="M 12.875 -7.140625 C 12.585938 -7.300781 12.203125 -7.207031 12.042969 -6.886719 C 11.273438 -5.574219 9.253906 -2.019531 8.101562 -2.144531 C 7.878906 -2.175781 7.238281 -2.496094 6.597656 -4.738281 C 6.148438 -6.308594 5.539062 -7.78125 4.355469 -7.847656 C 3.492188 -7.910156 2.53125 -7.238281 1.058594 -4.484375 C 1.441406 -5.859375 1.859375 -7.238281 2.175781 -8.359375 C 2.304688 -8.773438 2.402344 -9.128906 2.496094 -9.480469 C 2.59375 -9.800781 2.402344 -10.152344 2.082031 -10.25 C 1.761719 -10.34375 1.410156 -10.152344 1.3125 -9.800781 C 1.21875 -9.480469 1.121094 -9.09375 0.992188 -8.710938 C 0.160156 -5.859375 -1.089844 -1.539062 -1.410156 1.089844 C -1.441406 1.378906 -1.25 1.664062 -0.960938 1.730469 C -0.898438 1.761719 -0.863281 1.761719 -0.800781 1.761719 C -0.542969 1.761719 -0.320312 1.601562 -0.222656 1.378906 C 2.785156 -6.117188 4.003906 -6.628906 4.292969 -6.628906 C 4.355469 -6.628906 4.804688 -6.5 5.414062 -4.386719 C 6.054688 -2.175781 6.886719 -1.058594 7.972656 -0.929688 C 9.609375 -0.738281 11.082031 -2.753906 13.097656 -6.277344 C 13.289062 -6.597656 13.164062 -6.949219 12.875 -7.140625 Z M 12.875 -7.140625 "/></g></g></g><g fill="#000000" fill-opacity="1"><g transform="translate(273.576454, 90.391205)"><g><path d="M 13.386719 -7.109375 C 13.097656 -7.238281 12.714844 -7.109375 12.585938 -6.820312 C 10.152344 -1.859375 8.328125 -0.289062 7.460938 -0.449219 C 7.109375 -0.511719 5.957031 -1.183594 5.667969 -6.789062 C 5.667969 -7.046875 5.476562 -7.269531 5.253906 -7.332031 C 4.996094 -7.398438 4.707031 -7.332031 4.578125 -7.109375 C 4.386719 -6.886719 4.195312 -6.628906 4.003906 -6.339844 C 3.203125 -5.253906 2.144531 -3.777344 0.863281 -2.402344 C 0.671875 -2.175781 0.511719 -2.050781 0.417969 -1.984375 C 0.191406 -3.105469 1.378906 -7.398438 3.265625 -8.742188 C 3.8125 -9.128906 4.546875 -9.414062 5.539062 -8.261719 C 5.765625 -8.007812 6.148438 -7.972656 6.40625 -8.199219 C 6.660156 -8.390625 6.691406 -8.808594 6.5 -9.0625 C 5.285156 -10.472656 4.132812 -10.441406 3.363281 -10.183594 C 0.898438 -9.320312 -0.769531 -4.578125 -0.832031 -2.402344 C -0.863281 -1.503906 -0.609375 -0.929688 -0.0976562 -0.738281 C 0.703125 -0.417969 1.503906 -1.28125 1.761719 -1.570312 C 2.851562 -2.753906 3.84375 -4.035156 4.546875 -5.027344 C 4.898438 -1.378906 5.765625 0.449219 7.207031 0.769531 C 7.332031 0.769531 7.460938 0.800781 7.589844 0.800781 C 9.769531 0.800781 12.105469 -3.011719 13.675781 -6.277344 C 13.835938 -6.597656 13.707031 -6.949219 13.386719 -7.109375 Z M 13.386719 -7.109375 "/></g></g></g></svg>